<svg width="104" height="19" viewBox="0 0 104 19" fill="none" xmlns="http://www.w3.org/2000/svg">
<path d="M1.464 1.508H7.608C9.512 1.508 10.944 2.004 11.904 2.996C12.864 3.988 13.344 5.516 13.344 7.58C13.344 9.676 12.856 11.244 11.88 12.284C10.92 13.324 9.496 13.844 7.608 13.844H5.232V18.5H1.464V1.508ZM7.776 10.676C8.432 10.676 8.904 10.452 9.192 10.004C9.48 9.54 9.624 8.732 9.624 7.58C9.624 6.812 9.56 6.22 9.432 5.804C9.304 5.388 9.104 5.1 8.832 4.94C8.576 4.78 8.224 4.7 7.776 4.7H5.232V10.676H7.776ZM18.1281 18.692C17.8721 18.724 17.6881 18.74 17.5761 18.74C17.0481 18.74 16.5361 18.612 16.0401 18.356C15.5441 18.1 15.1361 17.732 14.8161 17.252C14.5121 16.756 14.3601 16.164 14.3601 15.476V14.036C14.3601 12.9 14.7281 11.988 15.4641 11.3C16.2161 10.596 17.1921 10.244 18.3921 10.244H20.7201V9.812C20.7201 9.476 20.6401 9.22 20.4801 9.044C20.3361 8.868 20.0641 8.78 19.6641 8.78C18.9281 8.78 18.0961 8.796 17.1681 8.828L15.4161 8.852L15.3201 5.852L17.0721 5.732C18.4161 5.62 19.3921 5.564 20.0001 5.564C22.9921 5.564 24.4881 6.98 24.4881 9.812V18.5H20.7201V17.636C20.4481 17.908 20.1921 18.108 19.9521 18.236C19.7121 18.364 19.3521 18.476 18.8721 18.572L18.1281 18.692ZM18.3201 15.692C19.1841 15.5 19.9841 15.364 20.7201 15.284V12.932H18.4401C18.2321 12.932 18.0881 12.972 18.0081 13.052C17.9441 13.116 17.9121 13.236 17.9121 13.412V15.332C17.9121 15.428 17.9521 15.516 18.0321 15.596C18.1121 15.676 18.2081 15.708 18.3201 15.692ZM30.8006 0.0919995V18.5H27.0326V0.0919995H30.8006ZM37.3631 0.0919995V18.5H33.5951V0.0919995H37.3631ZM43.2296 18.692C42.9736 18.724 42.7896 18.74 42.6776 18.74C42.1496 18.74 41.6376 18.612 41.1416 18.356C40.6456 18.1 40.2376 17.732 39.9176 17.252C39.6136 16.756 39.4616 16.164 39.4616 15.476V14.036C39.4616 12.9 39.8296 11.988 40.5656 11.3C41.3176 10.596 42.2936 10.244 43.4936 10.244H45.8216V9.812C45.8216 9.476 45.7416 9.22 45.5816 9.044C45.4376 8.868 45.1656 8.78 44.7656 8.78C44.0296 8.78 43.1976 8.796 42.2696 8.828L40.5176 8.852L40.4216 5.852L42.1736 5.732C43.5176 5.62 44.4936 5.564 45.1016 5.564C48.0936 5.564 49.5896 6.98 49.5896 9.812V18.5H45.8216V17.636C45.5496 17.908 45.2936 18.108 45.0536 18.236C44.8136 18.364 44.4536 18.476 43.9736 18.572L43.2296 18.692ZM43.4216 15.692C44.2856 15.5 45.0856 15.364 45.8216 15.284V12.932H43.5416C43.3336 12.932 43.1896 12.972 43.1096 13.052C43.0456 13.116 43.0136 13.236 43.0136 13.412V15.332C43.0136 15.428 43.0536 15.516 43.1336 15.596C43.2136 15.676 43.3096 15.708 43.4216 15.692Z" fill="#2B7FFF"/>
<path d="M56.424 18.644C54.904 18.644 53.808 18.148 53.136 17.156C52.464 16.148 52.128 14.532 52.128 12.308C52.128 10.068 52.464 8.452 53.136 7.46C53.824 6.452 54.92 5.948 56.424 5.948C57.176 5.948 58.36 6.092 59.976 6.38V0.691999H62.088V18.332C61.24 18.396 60.192 18.46 58.944 18.524C57.712 18.604 56.872 18.644 56.424 18.644ZM54.24 12.308C54.24 13.972 54.424 15.148 54.792 15.836C55.176 16.524 55.784 16.868 56.616 16.868L59.976 16.772V8.012C58.44 7.82 57.32 7.724 56.616 7.724C55.784 7.724 55.176 8.076 54.792 8.78C54.424 9.468 54.24 10.644 54.24 12.308ZM65.6192 6.116H67.7312V18.5H65.6192V6.116ZM65.6192 2.348H67.7312V4.292H65.6192V2.348ZM75.1322 18.812C74.8442 18.86 74.5562 18.884 74.2682 18.884C73.2602 18.884 72.4682 18.54 71.8922 17.852C71.3162 17.164 71.0282 16.268 71.0282 15.164V6.212H73.1402V15.188C73.1402 15.748 73.2762 16.196 73.5482 16.532C73.8362 16.868 74.2362 17.036 74.7482 17.036C74.8282 17.036 74.9802 17.02 75.2042 16.988L78.8762 16.292V6.164H80.9882V18.644H78.8762V17.972C78.6042 18.132 78.2042 18.252 77.6762 18.332L75.1322 18.812ZM84.5098 5.66H86.6218V6.62C86.8458 6.524 87.1978 6.428 87.6778 6.332L90.2218 5.876C90.5258 5.812 90.8378 5.78 91.1578 5.78C92.1018 5.78 92.8698 6.124 93.4618 6.812C93.6218 6.732 93.7978 6.652 93.9898 6.572C94.1818 6.492 94.4378 6.42 94.7578 6.356L97.3978 5.852C97.7178 5.804 98.0058 5.78 98.2618 5.78C99.2858 5.78 100.086 6.132 100.662 6.836C101.238 7.524 101.526 8.42 101.526 9.524V18.5H99.3898V9.452C99.3898 8.908 99.2458 8.476 98.9578 8.156C98.6858 7.82 98.3018 7.652 97.8058 7.652C97.7258 7.652 97.5738 7.668 97.3498 7.7L94.1818 8.276C94.2778 8.676 94.3258 9.092 94.3258 9.524V18.5H92.1898V9.452C92.1898 8.908 92.0538 8.476 91.7818 8.156C91.5098 7.82 91.1258 7.652 90.6298 7.652C90.5498 7.652 90.3978 7.668 90.1738 7.7L86.6218 8.348V18.5H84.5098V5.66Z" fill="#3F3F46"/>
</svg>
